<?xml version="1.0" encoding="UTF-8" standalone="no"?>
<!-- Created with Inkscape (http://www.inkscape.org/) -->

<svg
   width="210mm"
   height="210mm"
   viewBox="0 0 210 210"
   version="1.1"
   id="svg1415"
   xml:space="preserve"
   inkscape:version="1.2.2 (b0a8486, 2022-12-01)"
   sodipodi:docname="close.svg"
   xmlns:inkscape="http://www.inkscape.org/namespaces/inkscape"
   xmlns:sodipodi="http://sodipodi.sourceforge.net/DTD/sodipodi-0.dtd"
   xmlns="http://www.w3.org/2000/svg"
   xmlns:svg="http://www.w3.org/2000/svg"><sodipodi:namedview
     id="namedview1417"
     pagecolor="#ffffff"
     bordercolor="#000000"
     borderopacity="0.25"
     inkscape:showpageshadow="2"
     inkscape:pageopacity="0.0"
     inkscape:pagecheckerboard="0"
     inkscape:deskcolor="#d1d1d1"
     inkscape:document-units="mm"
     showgrid="false"
     inkscape:zoom="0.52787981"
     inkscape:cx="438.54679"
     inkscape:cy="113.66224"
     inkscape:window-width="1920"
     inkscape:window-height="1012"
     inkscape:window-x="0"
     inkscape:window-y="0"
     inkscape:window-maximized="1"
     inkscape:current-layer="layer1" /><defs
     id="defs1412" /><g
     inkscape:label="Capa 1"
     inkscape:groupmode="layer"
     id="layer1"><path
       style="display:inline;fill:#fffafa;stroke-width:0.318635"
       d="m 18.728473,58.958844 c 0,0 -6.927746,-5.362358 -8.429829,-12.343462 -2.2027631,-10.237593 0.696302,-24.920543 4.899899,-27.201236 4.203598,-2.280693 10.778045,-0.473515 15.947818,0.846963 4.377698,1.118162 8.114784,4.106811 12.291717,5.871713 13.161112,5.561035 31.847029,21.490996 31.847029,21.490996 0,0 25.814153,23.492107 27.657403,23.661028 1.53395,0.140573 32.3868,-30.871791 32.3868,-30.871791 0,0 18.93572,-19.406372 30.19592,-26.505234 2.7225,-1.716369 5.69447,-3.237002 8.83595,-3.764768 5.78587,-0.9720231 12.11516,-1.0560443 17.54061,1.253032 3.53232,1.503357 7.49333,3.9775 8.7024,7.748333 0.59599,1.858757 0.0329,4.281929 -1.22488,5.739041 -8.13414,9.423567 -16.23864,14.829743 -24.61072,23.562753 -14.92088,15.564166 -45.15119,43.025218 -45.33717,46.374092 -0.10744,1.93553 6.96456,7.196906 10.42802,10.815016 17.51171,18.2937 38.99174,33.3067 52.34394,55.0791 2.79304,4.55436 5.0283,9.80538 5.43404,15.19358 0.39428,5.23617 -0.74329,10.74901 -3.00607,15.44234 -1.17378,2.43461 -2.65438,5.65769 -5.23675,6.08565 -3.78145,0.62666 -6.92038,-3.54412 -9.94339,-5.99273 -8.77777,-7.10992 -15.27535,-16.85015 -23.30527,-24.86248 -9.74955,-9.72817 -19.78504,-19.16174 -30.16848,-28.14962 -6.35002,-5.49656 -18.17611,-15.67639 -19.62429,-15.74168 -2.10703,-0.095 -16.491922,20.67884 -24.438874,31.26689 -6.585932,8.77473 -12.566854,18.03519 -19.254476,26.726 -3.222125,4.18727 -5.547668,9.61958 -10.046023,12.23415 -5.356939,3.11359 -12.137483,4.03672 -18.182611,2.95252 -4.818828,-0.86427 -10.781463,-2.67818 -12.904712,-7.26763 -3.436339,-7.42773 1.237259,-16.69579 4.178182,-24.35094 2.484281,-6.4665 7.118576,-11.80575 11.067629,-17.42581 8.442695,-12.01515 17.410337,-23.65579 26.937817,-34.75535 3.684878,-4.2929 11.765509,-9.5552 11.662696,-12.28266 C 75.230223,96.004379 18.728473,58.958844 18.728473,58.958844 Z"
       id="path4764"
       sodipodi:nodetypes="csssscscsssssssssssssssssssssssssc" /></g></svg>
