<?xml version="1.0" encoding="UTF-8" standalone="no"?>
<!-- Created with Inkscape (http://www.inkscape.org/) -->

<svg
   width="210mm"
   height="210mm"
   viewBox="0 0 210 210"
   version="1.1"
   id="svg1858"
   xml:space="preserve"
   sodipodi:docname="dibujo-2.svg"
   inkscape:version="1.2.2 (b0a8486, 2022-12-01)"
   xmlns:inkscape="http://www.inkscape.org/namespaces/inkscape"
   xmlns:sodipodi="http://sodipodi.sourceforge.net/DTD/sodipodi-0.dtd"
   xmlns="http://www.w3.org/2000/svg"
   xmlns:svg="http://www.w3.org/2000/svg"><sodipodi:namedview
     id="namedview1860"
     pagecolor="#000000"
     bordercolor="#000000"
     borderopacity="0.25"
     inkscape:showpageshadow="2"
     inkscape:pageopacity="0"
     inkscape:pagecheckerboard="0"
     inkscape:deskcolor="#d1d1d1"
     inkscape:document-units="mm"
     showgrid="false"
     inkscape:zoom="0.74653479"
     inkscape:cx="371.71744"
     inkscape:cy="287.99729"
     inkscape:window-width="1920"
     inkscape:window-height="1012"
     inkscape:window-x="0"
     inkscape:window-y="0"
     inkscape:window-maximized="1"
     inkscape:current-layer="layer1" /><defs
     id="defs1855" /><g
     inkscape:label="Capa 1"
     inkscape:groupmode="layer"
     id="layer1"><path
       style="fill:#ffffff;stroke-width:0.330075"
       d="m 60.305354,108.29525 c 0,0 0.752675,-6.68286 -9.525827,-11.464567 -10.278499,-4.781711 -4.10612,-10.852597 -4.10612,-10.852597 l 3.712013,-6.46757 6.503132,-10.927741 c 0,0 3.199714,-5.487108 8.324446,-2.547695 5.124729,2.939412 9.52835,6.696719 16.148383,4.837144 6.620028,-1.859576 8.316468,-10.419421 7.891574,-11.452327 -0.42489,-1.03291 -0.09951,-8.059137 -0.09951,-8.059137 0,0 0.671342,-3.942356 6.237035,-4.247005 5.56569,-0.304648 22.11826,0.01873 22.11826,0.01873 0,0 6.40598,-0.383337 6.29819,5.047028 -0.10785,5.430364 -0.07,11.310885 0.71261,12.342695 0.78264,1.031812 2.62455,4.637898 6.09997,5.659242 3.47542,1.02134 5.71924,1.733755 7.84402,0.710358 2.12478,-1.023398 6.59993,-3.11345 6.59993,-3.11345 l 2.27518,-1.621457 c 0,0 5.79167,-2.367577 8.01306,1.388209 2.22139,3.755782 9.63504,16.107086 9.63504,16.107086 l 2.68198,4.475169 c 0,0 3.345,4.479064 -5.32408,8.73112 -8.66906,4.252055 -8.9708,8.387985 -9.11817,9.358745 -0.14736,0.97076 -0.89179,5.2682 0.54648,7.26948 1.43829,2.00128 12.76246,8.79219 13.7732,10.87555 2.14818,4.42788 -4.50029,13.16103 -4.50029,13.16103 l -7.56817,12.44662 c 0,0 -3.06378,4.36664 -9.78099,-0.38058 -6.71719,-4.74724 -11.09902,-3.74997 -11.09902,-3.74997 0,0 -5.65904,0.11823 -8.86555,5.24776 -3.2065,5.12951 -1.4988,12.73314 -1.4988,12.73314 0,0 -0.49161,6.70763 -7.82564,6.5656 -6.9162,-0.13395 -22.7837,-0.0488 -22.7837,-0.0488 0,0 -4.514694,-0.47043 -4.488739,-6.587 0.02595,-6.11655 1.21194,-13.10307 -6.610849,-17.11945 -7.822786,-4.01637 -14.095775,2.80857 -16.319209,3.95044 -2.223437,1.14187 -4.973808,1.91066 -7.49096,0.52918 -2.517156,-1.38149 -8.912763,-14.41415 -8.912763,-14.41415 l -4.884594,-8.32959 c 0,0 -1.11533,-5.12007 3.561211,-7.16999 4.676545,-2.04992 9.848818,-4.26897 11.429244,-9.51928 0.766309,-2.54575 0.398018,-3.38199 0.398018,-3.38199 z"
       id="path2002"
       sodipodi:nodetypes="cscccssscsccsssccsccssssccscscscssssccsscc" /><circle
       style="fill:#828282;stroke-width:0.264583;fill-opacity:1"
       id="path2119"
       cy="110.51867"
       cx="105.20557"
       r="20" /></g></svg>
