<?xml version="1.0" encoding="UTF-8" standalone="no"?>
<!-- Created with Inkscape (http://www.inkscape.org/) -->

<svg
   width="210mm"
   height="210mm"
   viewBox="0 0 210 210"
   version="1.1"
   id="svg1484"
   xml:space="preserve"
   inkscape:version="1.2.2 (b0a8486, 2022-12-01)"
   sodipodi:docname="dibujo-1.svg"
   xmlns:inkscape="http://www.inkscape.org/namespaces/inkscape"
   xmlns:sodipodi="http://sodipodi.sourceforge.net/DTD/sodipodi-0.dtd"
   xmlns="http://www.w3.org/2000/svg"
   xmlns:svg="http://www.w3.org/2000/svg"><sodipodi:namedview
     id="namedview1486"
     pagecolor="#000000"
     bordercolor="#000000"
     borderopacity="0.25"
     inkscape:showpageshadow="2"
     inkscape:pageopacity="0"
     inkscape:pagecheckerboard="0"
     inkscape:deskcolor="#d1d1d1"
     inkscape:document-units="mm"
     showgrid="false"
     inkscape:zoom="0.26393991"
     inkscape:cx="2663.4851"
     inkscape:cy="-136.39468"
     inkscape:window-width="1920"
     inkscape:window-height="1012"
     inkscape:window-x="0"
     inkscape:window-y="0"
     inkscape:window-maximized="1"
     inkscape:current-layer="layer1" /><defs
     id="defs1481" /><g
     inkscape:label="Capa 1"
     inkscape:groupmode="layer"
     id="layer1"><ellipse
       style="fill:#ffffff;stroke-width:0.806507"
       id="path1582"
       cx="46.095062"
       cy="106.04988"
       rx="14.156656"
       ry="15.429896" /><ellipse
       style="fill:#ffffff;stroke-width:0.806507"
       id="path1582-4"
       cx="102.84702"
       cy="73.985466"
       rx="14.156656"
       ry="15.429896" /><ellipse
       style="fill:#ffffff;stroke-width:0.806507"
       id="path1582-9"
       cx="159.84441"
       cy="42.531975"
       rx="14.156656"
       ry="15.429896" /><ellipse
       style="fill:#ffffff;stroke-width:0.806507"
       id="path1582-96"
       cx="159.79269"
       cy="105.93021"
       rx="14.156656"
       ry="15.429896" /><ellipse
       style="fill:#ffffff;stroke-width:0.806507"
       id="path1582-5"
       cx="160.00278"
       cy="169.5365"
       rx="14.156656"
       ry="15.429896" /><ellipse
       style="fill:#ffffff;stroke-width:0.806507"
       id="path1582-1"
       cx="103.11523"
       cy="137.85951"
       rx="14.156656"
       ry="15.429896" /><rect
       style="fill:#ffffff;stroke-width:1.22117"
       id="rect1667"
       width="77.304756"
       height="5.1972508"
       x="64.270935"
       y="103.29205" /><path
       style="fill:#ffffff;stroke-width:0.775804"
       d="M 61.418703,94.818054 63.304718,99.094411 87.736839,85.258326 85.730882,81.45162 Z"
       id="path1750" /><path
       style="fill:#ffffff;stroke-width:0.775804"
       d="m 118.02156,63.28681 24.60038,-13.902182 2.05714,4.018385 -24.11523,13.742222 z"
       id="path1752" /><path
       style="fill:#ffffff;stroke-width:0.775804"
       d="m 148.19368,57.335415 -17.36823,29.652881 -10.6857,-6.039996 -1.74326,4.361995 9.92847,5.728596 -6.10053,10.602619 -7.63921,-12.195094 -3.67077,2.726086 8.59719,13.531838 -8.38333,14.5271 3.54757,2.44931 7.21885,-12.40316 6.73683,11.05148 -10.38286,5.39044 1.88142,4.16426 10.42235,-5.91232 18.02123,29.51676 3.39638,-2.58426 -17.57282,-28.99842 10.32486,-6.06373 -1.96114,-3.60701 -10.44879,5.68404 -7.70407,-12.66458 7.82075,-13.333742 10.26905,6.058425 1.85272,-4.094429 -9.98316,-5.855259 17.27804,-29.081595 z"
       id="path1754" /><path
       style="fill:#ffffff;stroke-width:0.775804"
       d="m 157.69793,61.894875 0.22099,24.575644 4.38096,-0.193936 -0.11906,-24.563142 z"
       id="path1756" /><path
       style="fill:#ffffff;stroke-width:0.775804"
       d="m 157.91152,125.35959 -0.0255,24.83808 4.22455,-0.0305 -0.2366,-24.54673 z"
       id="path1758" /><path
       style="fill:#ffffff;stroke-width:0.775804"
       d="m 142.61987,162.75876 c 0.0295,-0.31502 1.98844,-3.87963 1.98844,-3.87963 l -24.43774,-14.08558 -2.14493,4.55022 z"
       id="path1760" /><path
       style="fill:#ffffff;stroke-width:0.775804"
       d="m 100.7199,93.716773 c 0,0 -0.57897,24.635877 0.12559,24.635877 0.70453,0 4.38409,0.12546 4.38409,0.12546 L 105.1174,93.786995 Z"
       id="path1762" /><path
       style="fill:#ffffff;stroke-width:0.775804"
       d="m 63.49624,113.1535 -2.402371,4.23724 24.704358,13.16933 2.156118,-3.83656 z"
       id="path1764" /></g></svg>
